<svg width="1440" height="1004" viewBox="0 0 1440 1004" fill="none" xmlns="http://www.w3.org/2000/svg">
<path fill-rule="evenodd" clip-rule="evenodd" d="M-1390 892.444L-1273.73 799.481C-1153.94 706.518 -921.397 520.593 -685.333 539.185C-449.27 557.778 -216.73 780.889 19.3334 799.481C255.397 818.074 487.937 632.148 724 502C960.063 371.852 1192.6 297.481 1428.67 223.111C1664.73 148.741 1897.27 74.3704 2133.33 37.1852C2369.4 0 2601.94 0 2721.73 0H2838V1004H2721.73C2601.94 1004 2369.4 1004 2133.33 1004C1897.27 1004 1664.73 1004 1428.67 1004C1192.6 1004 960.063 1004 724 1004C487.937 1004 255.397 1004 19.3334 1004C-216.73 1004 -449.27 1004 -685.333 1004C-921.397 1004 -1153.94 1004 -1273.73 1004H-1390V892.444Z" fill="#06a77d"/>
</svg>
